HIERARCHY
ROOT Hips
{
  OFFSET 5.84602e-005 68.8428 3.50346
  CHANNELS 6 Xposition Yposition Zposition Zrotation Xrotation Yrotation
  JOINT Spine
  {
    OFFSET 0 8.597 -4.6522
    CHANNELS 3 Zrotation Xrotation Yrotation
    JOINT Spine1
    {
      OFFSET 0 7.8454 0.4098
      CHANNELS 3 Zrotation Xrotation Yrotation
      JOINT Spine2
      {
        OFFSET 0 9.7078 -2.1609
        CHANNELS 3 Zrotation Xrotation Yrotation
        JOINT Neck
        {
          OFFSET 0 21.8761 -0.4549
          CHANNELS 3 Zrotation Xrotation Yrotation
          JOINT Head
          {
            OFFSET 0 12.3537 3.3602
            CHANNELS 3 Zrotation Xrotation Yrotation
            End Site
            {
              OFFSET 0.0001 18.9506 0.5657
            }
          }
        }
        JOINT LeftShoulder
        {
          OFFSET 2.2086 21.1115 7.2329
          CHANNELS 3 Zrotation Xrotation Yrotation
          JOINT LeftArm
          {
            OFFSET 13.1193 3.0282 -4.8998
            CHANNELS 3 Zrotation Xrotation Yrotation
            JOINT LeftForeArm
            {
              OFFSET 27.4081 -0.0973053 -0.2375
              CHANNELS 3 Zrotation Xrotation Yrotation
              JOINT LeftHand
              {
                OFFSET 22.8641 0.0662994 -0.1369
                CHANNELS 3 Zrotation Xrotation Yrotation
                JOINT LeftHandIndex1
                {
                  OFFSET 8.8614 0.775009 2.4612
                  CHANNELS 3 Zrotation Xrotation Yrotation
                  JOINT LeftHandIndex2
                  {
                    OFFSET 3.3146 -0.808304 0.5841
                    CHANNELS 3 Zrotation Xrotation Yrotation
                    JOINT LeftHandIndex3
                    {
                      OFFSET 2.2628 -0.552002 0.3989
                      CHANNELS 3 Zrotation Xrotation Yrotation
                      End Site
                      {
                        OFFSET 1.6102 -0.4807 0.2612
                      }
                    }
                  }
                }
                JOINT LeftHandMiddle1
                {
                  OFFSET 8.9937 0.895004 0.2143
                  CHANNELS 3 Zrotation Xrotation Yrotation
                  JOINT LeftHandMiddle2
                  {
                    OFFSET 4.0984 0.0113983 -0.0242
                    CHANNELS 3 Zrotation Xrotation Yrotation
                    JOINT LeftHandMiddle3
                    {
                      OFFSET 2.2716 0.00689697 -0.0138001
                      CHANNELS 3 Zrotation Xrotation Yrotation
                      End Site
                      {
                        OFFSET 2.0404 -0.1441 0.0027
                      }
                    }
                  }
                }
                JOINT LeftHandRing1
                {
                  OFFSET 8.5234 0.597198 -2.0164
                  CHANNELS 3 Zrotation Xrotation Yrotation
                  JOINT LeftHandRing2
                  {
                    OFFSET 3.7188 -0.188293 -0.2328
                    CHANNELS 3 Zrotation Xrotation Yrotation
                    JOINT LeftHandRing3
                    {
                      OFFSET 2.1191 -0.106598 -0.1332
                      CHANNELS 3 Zrotation Xrotation Yrotation
                      End Site
                      {
                        OFFSET 1.8737 -0.2304 -0.0886
                      }
                    }
                  }
                }
                JOINT LeftHandPinky1
                {
                  OFFSET 7.9094 -0.601089 -3.4825
                  CHANNELS 3 Zrotation Xrotation Yrotation
                  JOINT LeftHandPinky2
                  {
                    OFFSET 2.2874 -0.477005 -0.6314
                    CHANNELS 3 Zrotation Xrotation Yrotation
                    JOINT LeftHandPinky3
                    {
                      OFFSET 1.6774 -0.349396 -0.4633
                      CHANNELS 3 Zrotation Xrotation Yrotation
                      End Site
                      {
                        OFFSET 1.4888 -0.4091 -0.3416
                      }
                    }
                  }
                }
                JOINT LeftHandThumb1
                {
                  OFFSET 1.833 -1.3875 1.3896
                  CHANNELS 3 Zrotation Xrotation Yrotation
                  JOINT LeftHandThumb2
                  {
                    OFFSET 3.4129 -1.121 2.5732
                    CHANNELS 3 Zrotation Xrotation Yrotation
                    JOINT LeftHandThumb3
                    {
                      OFFSET 2.2474 -0.804199 1.6192
                      CHANNELS 3 Zrotation Xrotation Yrotation
                      End Site
                      {
                        OFFSET 1.6527 -0.5689 1.1317
                      }
                    }
                  }
                }
              }
            }
          }
        }
        JOINT RightShoulder
        {
          OFFSET -2.2086 21.1115 7.2329
          CHANNELS 3 Zrotation Xrotation Yrotation
          JOINT RightArm
          {
            OFFSET -13.1216 3.0287 -4.9007
            CHANNELS 3 Zrotation Xrotation Yrotation
            JOINT RightForeArm
            {
              OFFSET -27.4081 -0.0973053 -0.2375
              CHANNELS 3 Zrotation Xrotation Yrotation
              JOINT RightHand
              {
                OFFSET -22.8641 0.0664063 -0.1369
                CHANNELS 3 Zrotation Xrotation Yrotation
                JOINT RightHandIndex1
                {
                  OFFSET -8.8614 0.774994 2.4612
                  CHANNELS 3 Zrotation Xrotation Yrotation
                  JOINT RightHandIndex2
                  {
                    OFFSET -3.3146 -0.808304 0.5841
                    CHANNELS 3 Zrotation Xrotation Yrotation
                    JOINT RightHandIndex3
                    {
                      OFFSET -2.2628 -0.552002 0.3989
                      CHANNELS 3 Zrotation Xrotation Yrotation
                      End Site
                      {
                        OFFSET -1.6102 -0.4807 0.2612
                      }
                    }
                  }
                }
                JOINT RightHandMiddle1
                {
                  OFFSET -8.9937 0.894989 0.2143
                  CHANNELS 3 Zrotation Xrotation Yrotation
                  JOINT RightHandMiddle2
                  {
                    OFFSET -4.0984 0.0113983 -0.0242
                    CHANNELS 3 Zrotation Xrotation Yrotation
                    JOINT RightHandMiddle3
                    {
                      OFFSET -2.2716 0.00691223 -0.0138001
                      CHANNELS 3 Zrotation Xrotation Yrotation
                      End Site
                      {
                        OFFSET -2.0404 -0.1441 0.0027
                      }
                    }
                  }
                }
                JOINT RightHandRing1
                {
                  OFFSET -8.5234 0.597198 -2.0164
                  CHANNELS 3 Zrotation Xrotation Yrotation
                  JOINT RightHandRing2
                  {
                    OFFSET -3.7188 -0.188309 -0.2328
                    CHANNELS 3 Zrotation Xrotation Yrotation
                    JOINT RightHandRing3
                    {
                      OFFSET -2.1191 -0.106598 -0.1332
                      CHANNELS 3 Zrotation Xrotation Yrotation
                      End Site
                      {
                        OFFSET -1.8737 -0.2304 -0.0886
                      }
                    }
                  }
                }
                JOINT RightHandPinky1
                {
                  OFFSET -7.9094 -0.601105 -3.4825
                  CHANNELS 3 Zrotation Xrotation Yrotation
                  JOINT RightHandPinky2
                  {
                    OFFSET -2.2874 -0.477005 -0.6314
                    CHANNELS 3 Zrotation Xrotation Yrotation
                    JOINT RightHandPinky3
                    {
                      OFFSET -1.6774 -0.349396 -0.4633
                      CHANNELS 3 Zrotation Xrotation Yrotation
                      End Site
                      {
                        OFFSET -1.4888 -0.4091 -0.3416
                      }
                    }
                  }
                }
                JOINT RightHandThumb1
                {
                  OFFSET -1.833 -1.38751 1.3896
                  CHANNELS 3 Zrotation Xrotation Yrotation
                  JOINT RightHandThumb2
                  {
                    OFFSET -3.41299 -1.12099 2.5732
                    CHANNELS 3 Zrotation Xrotation Yrotation
                    JOINT RightHandThumb3
                    {
                      OFFSET -2.24741 -0.804108 1.6192
                      CHANNELS 3 Zrotation Xrotation Yrotation
                      End Site
                      {
                        OFFSET -1.6527 -0.5689 1.1317
                      }
                    }
                  }
                }
              }
            }
          }
        }
      }
    }
  }
  JOINT RightUpLeg
  {
    OFFSET -9.1966 3.8861 -0.7581
    CHANNELS 3 Zrotation Xrotation Yrotation
    JOINT RightLeg
    {
      OFFSET -0.7359 -41.0265 0
      CHANNELS 3 Zrotation Xrotation Yrotation
      JOINT RightFoot
      {
        OFFSET 0 -40.2855 0
        CHANNELS 3 Zrotation Xrotation Yrotation
        JOINT RightToeBase
        {
          OFFSET 0 -5.6122 11.7359
          CHANNELS 3 Zrotation Xrotation Yrotation
          End Site
          {
            OFFSET 0 0 7.8731
          }
        }
      }
    }
  }
  JOINT LeftUpLeg
  {
    OFFSET 9.1965 3.8864 -0.7581
    CHANNELS 3 Zrotation Xrotation Yrotation
    JOINT LeftLeg
    {
      OFFSET 0.7359 -41.0268 0
      CHANNELS 3 Zrotation Xrotation Yrotation
      JOINT LeftFoot
      {
        OFFSET 0 -40.2855 0
        CHANNELS 3 Zrotation Xrotation Yrotation
        JOINT LeftToeBase
        {
          OFFSET 0 -5.6122 11.7359
          CHANNELS 3 Zrotation Xrotation Yrotation
          End Site
          {
            OFFSET 0 0 7.8731
          }
        }
      }
    }
  }
}
MOTION
Frames:	6
Frame Time:	0.0333333
5.84602e-005 68.8428 3.50346 0 0 -0 0 0 -0 0 0 -0 0 0 -0 0 0 -0 0 0 -0 0 0 -0 0 0 -0 0 0 -0 0 0 -0 0 0 -0 0 0 -0 0 0 -0 0 0 -0 -0.0146107 -8.87603e-005 -2.63497e-007 2.99804e-018 -2.42657e-020 -1.42182e-022 0 0 -0 -0.0187562 -0.001176 5.858e-005 5.06224e-018 3.88251e-019 1.21329e-020 0 0 -0 -0.012269 -0.00324817 0.000675346 -1.74678e-018 3.88251e-019 -0 0 0 -0 0 0 -0 0 0 -0 0 0 -0 0 0 -0 0 0 -0 0 0 -0 0 0 -0 0 0 -0 0 0 -0 0 0 -0 0.0149955 -9.10982e-005 2.64101e-007 -9.69331e-018 1.21329e-020 -4.7394e-023 0 0 -0 0.0189956 -0.00119102 -5.96516e-005 -5.41541e-019 0 2.42657e-020 0 0 -0 0.0122698 -0.00324857 -0.000673756 -2.00796e-019 0 -1.94126e-019 0 0 -0 0 0 -0 0 0 -0 3.39842 1.33031 -0.0637918 -5.65207e-008 0.834868 -0.000436188 -3.39935 -2.16518 -0.0642563 -8.89002e-024 -1.18485e-023 -1.48106e-024 -3.39844 1.35642 0.0640283 -3.18788e-007 0.782166 -0.000588827 3.39931 -2.13858 0.0634662 1.1399e-023 0 -0 
-0.0402971 1.51885 6.78325 0.645985 -48.0242 -1.50211 -0.542789 6.93583 -0.821034 -0.995624 13.8782 -1.59302 -0.995624 13.8782 -1.59302 1.21955 6.33548 -0.296926 -0.812445 -33.422 -2.62663 5.52096 7.82451 -11.3208 -34.3862 10.4547 -58.7431 33.9134 -61.1441 -30.0321 -61.4722 -40.9932 -0.223583 3.18055e-015 0 3.97569e-015 9.93129e-032 2.38542e-015 -2.38542e-015 3.18055e-015 0 2.38542e-015 3.18055e-015 0 3.97569e-015 -0.0146389 -8.98914e-005 1.20488e-006 -4.41391e-032 -1.59028e-015 -1.59028e-015 3.18055e-015 0 3.97569e-015 -0.0187722 -0.00117873 6.17199e-005 -0 -2.38542e-015 -0 3.18055e-015 0 3.97569e-015 -0.0123388 -0.00326139 0.00067731 1.87591e-031 -1.35174e-014 7.95139e-016 3.18055e-015 0 3.97569e-015 9.93129e-032 2.38542e-015 -2.38542e-015 3.18055e-015 0 2.38542e-015 -8.68554 6.97105 2.28869 87.8266 6.67987 -8.1626 0.290609 -53.9072 -0.271402 -39.913 -15.7421 6.52542 -6.36111e-015 -3.18055e-015 1.74931e-014 1.76556e-031 -3.18055e-015 3.18055e-015 -3.18055e-015 -3.18055e-015 4.77083e-015 -6.36111e-015 -3.18055e-015 1.74931e-014 0.0150134 -8.99298e-005 -1.68694e-006 3.18055e-015 -3.18055e-015 -0 -6.36111e-015 -3.18055e-015 1.74931e-014 0.0189821 -0.00119293 -6.43488e-005 1.27222e-014 -3.18055e-015 4.77083e-015 -6.36111e-015 -3.18055e-015 1.74931e-014 0.0122763 -0.00324967 -0.000678124 1.0789e-006 -1.46137e-006 6.95481e-007 -6.36111e-015 -3.18055e-015 1.74931e-014 1.76556e-031 -3.18055e-015 3.18055e-015 -3.18055e-015 -3.18055e-015 4.77083e-015 -1.80712 -79.1214 21.5252 -173.336 86.7173 171.523 24.1115 28.6214 0.137149 1.51038e-009 -4.32919e-007 -1.9869e-007 5.52728 -79.6637 -14.8206 178.712 82.878 -176.737 -26.3913 22.57 2.33859 -4.07462e-007 -4.92099e-010 2.46747e-007 
-0.0402971 1.51885 6.78325 0.645985 -48.0242 -1.50211 -0.542789 6.93583 -0.821034 -0.995624 13.8782 -1.59302 -0.995624 13.8782 -1.59302 1.34917 6.31578 -0.33313 -0.812445 -33.422 -2.62663 5.6626 7.83059 -11.1947 -34.3862 10.4547 -58.7431 33.2533 -60.978 -30.6415 -61.2567 -41.0235 -0.439143 8.82781e-032 1.59028e-015 -3.18055e-015 -3.18055e-015 1.59028e-015 -6.36111e-015 3.18055e-015 1.59028e-015 -6.36111e-015 8.82781e-032 1.59028e-015 -3.18055e-015 -0.0146373 -8.73383e-005 -1.46882e-006 3.18055e-015 7.95139e-016 -2.38542e-015 8.82781e-032 1.59028e-015 -3.18055e-015 -0.0187838 -0.00117862 5.83733e-005 -3.18055e-015 0 -7.95139e-016 8.82781e-032 1.59028e-015 -3.18055e-015 -0.0122673 -0.00324756 0.000674606 1.27222e-014 0 5.56597e-015 8.82781e-032 1.59028e-015 -3.18055e-015 -3.18055e-015 1.59028e-015 -6.36111e-015 3.18055e-015 1.59028e-015 -6.36111e-015 -8.68554 6.97106 2.28869 87.8266 6.67987 -8.16261 0.290623 -53.9072 -0.27139 -39.913 -15.7421 6.52541 -1.07717e-006 1.461e-006 -6.9545e-007 -6.36111e-015 0 -4.77083e-015 1.07717e-006 -1.461e-006 6.9545e-007 -1.07717e-006 1.461e-006 -6.9545e-007 0.0149914 -9.08752e-005 -5.07471e-008 1.07925e-006 -1.46092e-006 6.9564e-007 -1.07717e-006 1.461e-006 -6.9545e-007 0.0189776 -0.00118844 -5.84734e-005 1.07981e-006 -1.46105e-006 6.95672e-007 -1.07717e-006 1.461e-006 -6.9545e-007 0.012265 -0.00324381 -0.000677621 1.27222e-014 -6.36111e-015 1.59028e-014 -1.07717e-006 1.461e-006 -6.9545e-007 -6.36111e-015 0 -4.77083e-015 1.07717e-006 -1.461e-006 6.9545e-007 -1.80713 -79.1214 21.5252 -173.336 86.7173 171.523 24.1115 28.6214 0.137147 2.47935e-008 -4.18703e-007 2.27121e-007 5.52728 -79.6637 -14.8206 178.712 82.878 -176.737 -26.3913 22.57 2.33859 -4.07462e-007 -4.92099e-010 2.46747e-007 
-0.040298 1.51885 6.78325 0.645984 -48.0242 -1.50211 -0.542788 6.93574 -0.821036 -0.995624 13.8782 -1.59302 -0.995623 13.8782 -1.59302 1.47881 6.29624 -0.369306 -0.812444 -33.422 -2.62663 5.8043 7.83701 -11.0686 -34.3862 10.4547 -58.7431 32.5992 -60.8083 -31.2448 -61.0408 -41.0545 -0.655124 -1.08737e-006 -1.21381e-006 -1.25516e-006 3.16515e-007 -1.05846e-006 -4.41387e-006 1.32417e-031 3.18055e-015 -2.38542e-015 -1.08737e-006 -1.21381e-006 -1.25516e-006 -0.0146156 -9.25664e-005 -2.66892e-006 -2.20695e-032 -1.59028e-015 -7.95139e-016 -1.08737e-006 -1.21381e-006 -1.25516e-006 -0.0187426 -0.00117197 5.75072e-005 8.82781e-032 -1.59028e-015 3.18055e-015 -1.08737e-006 -1.21381e-006 -1.25516e-006 -0.0123087 -0.00326352 0.000673992 3.18055e-015 1.59028e-015 -1.59028e-015 -1.08737e-006 -1.21381e-006 -1.25516e-006 3.16515e-007 -1.05846e-006 -4.41387e-006 1.32417e-031 3.18055e-015 -2.38542e-015 -8.68554 6.97108 2.28869 87.8266 6.67987 -8.16261 0.290642 -53.9072 -0.271401 -39.913 -15.7421 6.52543 9.54166e-015 -6.36111e-015 4.77083e-015 6.36111e-015 -6.36111e-015 7.95139e-015 6.36111e-015 0 7.95139e-015 9.54166e-015 -6.36111e-015 4.77083e-015 0.0149891 -8.948e-005 -3.62088e-006 -2.88412e-006 2.85933e-006 -2.24912e-007 9.54166e-015 -6.36111e-015 4.77083e-015 0.018997 -0.00119242 -6.10823e-005 -6.36111e-015 3.18055e-015 1.59028e-015 9.54166e-015 -6.36111e-015 4.77083e-015 0.0122514 -0.00324425 -0.00067803 -6.36111e-015 9.54166e-015 9.54166e-015 9.54166e-015 -6.36111e-015 4.77083e-015 6.36111e-015 -6.36111e-015 7.95139e-015 6.36111e-015 0 7.95139e-015 -1.80712 -79.1214 21.5252 -173.336 86.7173 171.523 24.1115 28.6215 0.137145 -4.62246e-007 3.98444e-007 -4.16744e-007 5.52727 -79.6637 -14.8207 178.712 82.878 -176.737 -26.3913 22.57 2.33859 -4.07462e-007 -4.92126e-010 2.46747e-007 
-0.0402971 1.51885 6.78325 0.645985 -48.0242 -1.50211 -0.542789 6.93583 -0.821034 -0.995624 13.8782 -1.59302 -0.995624 13.8782 -1.59302 1.60845 6.27615 -0.40543 -0.812445 -33.422 -2.62663 5.94606 7.84369 -10.9424 -34.3862 10.4547 -58.743 31.9511 -60.6349 -31.842 -60.8245 -41.0861 -0.87151 -2.06012e-006 -3.92969e-007 -2.32183e-006 1.04854e-006 5.39194e-007 1.19088e-006 -3.18055e-015 0 3.97569e-015 -2.06012e-006 -3.92969e-007 -2.32183e-006 -0.0146063 -7.45218e-005 -2.52246e-006 -6.36111e-015 1.59028e-015 -7.95139e-016 -2.06012e-006 -3.92969e-007 -2.32183e-006 -0.0187628 -0.0011753 6.28863e-005 -3.18055e-015 1.59028e-015 -1.59028e-015 -2.06012e-006 -3.92969e-007 -2.32183e-006 -0.0122566 -0.00324551 0.000674831 1.27222e-014 3.18055e-015 -0 -2.06012e-006 -3.92969e-007 -2.32183e-006 1.04854e-006 5.39194e-007 1.19088e-006 -3.18055e-015 0 3.97569e-015 -8.68554 6.97106 2.28869 87.8266 6.67987 -8.16261 0.290618 -53.9072 -0.271408 -39.913 -15.7421 6.52542 3.18055e-015 -3.18055e-015 3.18055e-015 0 0 -0 0 3.18055e-015 -0 3.18055e-015 -3.18055e-015 3.18055e-015 0.0149753 -8.28209e-005 -3.2505e-006 -2.88413e-006 2.85934e-006 -2.24912e-007 3.18055e-015 -3.18055e-015 3.18055e-015 0.0189915 -0.00118586 -5.93251e-005 -2.88379e-006 2.85923e-006 -2.24989e-007 3.18055e-015 -3.18055e-015 3.18055e-015 0.0122593 -0.00324357 -0.000673273 3.18055e-015 3.18055e-015 9.54166e-015 3.18055e-015 -3.18055e-015 3.18055e-015 0 0 -0 0 3.18055e-015 -0 -1.80713 -79.1214 21.5252 -173.336 86.7173 171.523 24.1115 28.6214 0.137149 -1.01312e-008 -4.40027e-007 -4.11595e-007 5.52725 -79.6638 -14.8207 178.712 82.8779 -176.737 -26.3913 22.57 2.33858 -6.95746e-016 0 3.97569e-016 
-0.0402971 1.51885 6.78325 0.645985 -48.0242 -1.50211 -0.542789 6.93583 -0.821034 -0.995624 13.8782 -1.59302 -0.995624 13.8782 -1.59302 1.73809 6.25616 -0.441529 -0.812445 -33.422 -2.62663 6.08788 7.85071 -10.8161 -34.3862 10.4546 -58.7431 31.3092 -60.458 -32.4329 -60.6078 -41.1185 -1.08822 -2.0941e-006 -1.07887e-006 -2.38423e-006 -1.04705e-006 -5.39436e-007 -1.19211e-006 -0 0 7.95139e-016 -2.0941e-006 -1.07887e-006 -2.38423e-006 -0.0145962 -8.93806e-005 4.22226e-007 -6.36111e-015 1.59028e-015 2.38542e-015 -2.0941e-006 -1.07887e-006 -2.38423e-006 -0.0187393 -0.00117336 5.67157e-005 0 0 -3.18055e-015 -2.0941e-006 -1.07887e-006 -2.38423e-006 -0.0122981 -0.00325622 0.000675422 -6.36111e-015 3.18055e-015 -3.18055e-015 -2.0941e-006 -1.07887e-006 -2.38423e-006 -1.04705e-006 -5.39436e-007 -1.19211e-006 -0 0 7.95139e-016 -8.68554 6.97106 2.28869 87.8266 6.67988 -8.1626 0.290669 -53.9072 -0.271383 -39.913 -15.7421 6.52542 1.41936e-006 6.68221e-007 -5.58946e-007 -3.8737e-006 1.41637e-006 -3.03392e-006 -5.29306e-006 7.48148e-007 -2.47498e-006 1.41936e-006 6.68221e-007 -5.58946e-007 0.0149789 -8.92684e-005 -1.07386e-006 -6.37225e-006 2.20874e-006 -3.17071e-006 1.41936e-006 6.68221e-007 -5.58946e-007 0.0189794 -0.00119075 -6.45437e-005 -5.293e-006 7.47729e-007 -2.47505e-006 1.41936e-006 6.68221e-007 -5.58946e-007 0.0122692 -0.00325172 -0.000678785 -5.29308e-006 7.47836e-007 -2.47491e-006 1.41936e-006 6.68221e-007 -5.58946e-007 -3.8737e-006 1.41637e-006 -3.03392e-006 -5.29306e-006 7.48148e-007 -2.47498e-006 -1.80712 -79.1214 21.5252 -173.336 86.7172 171.523 24.1115 28.6214 0.137164 3.6435e-008 -4.11595e-007 4.40027e-007 5.52727 -79.6639 -14.8207 178.712 82.8779 -176.737 -26.3913 22.57 2.33859 -3.84508e-007 8.48845e-007 2.94624e-007 
